<?xml version="1.0" encoding="UTF-8" standalone="no"?>
<!-- Uploaded to: SVG Repo, www.svgrepo.com, Generator: SVG Repo Mixer Tools -->

<svg
   fill="#000000"
   width="800px"
   height="800px"
   viewBox="0 0 32 32"
   id="Camada_1"
   version="1.1"
   xml:space="preserve"
   sodipodi:docname="instagram.svg"
   inkscape:version="1.4 (e7c3feb100, 2024-10-09)"
   xmlns:inkscape="http://www.inkscape.org/namespaces/inkscape"
   xmlns:sodipodi="http://sodipodi.sourceforge.net/DTD/sodipodi-0.dtd"
   xmlns="http://www.w3.org/2000/svg"
   xmlns:svg="http://www.w3.org/2000/svg"><defs
   id="defs3" /><sodipodi:namedview
   id="namedview3"
   pagecolor="#505050"
   bordercolor="#eeeeee"
   borderopacity="1"
   inkscape:showpageshadow="0"
   inkscape:pageopacity="0"
   inkscape:pagecheckerboard="0"
   inkscape:deskcolor="#505050"
   inkscape:zoom="0.45254834"
   inkscape:cx="271.79417"
   inkscape:cy="207.71262"
   inkscape:window-width="1266"
   inkscape:window-height="1378"
   inkscape:window-x="0"
   inkscape:window-y="0"
   inkscape:window-maximized="0"
   inkscape:current-layer="Camada_1" />

<g
   id="g3"
   style="fill:#ff65c3;fill-opacity:1"
   transform="matrix(1.310624,0,0,1.310624,-4.9548064,-4.9544521)">

<path
   d="m 22.3,8.4 c -0.8,0 -1.4,0.6 -1.4,1.4 0,0.8 0.6,1.4 1.4,1.4 0.8,0 1.4,-0.6 1.4,-1.4 0,-0.8 -0.6,-1.4 -1.4,-1.4 z"
   id="path1"
   style="fill:#ff65c3;fill-opacity:1" />

<path
   d="m 16,10.2 c -3.3,0 -5.9,2.7 -5.9,5.9 0,3.2 2.7,5.9 5.9,5.9 3.2,0 5.9,-2.7 5.9,-5.9 0,-3.2 -2.6,-5.9 -5.9,-5.9 z m 0,9.7 c -2.1,0 -3.8,-1.7 -3.8,-3.8 0,-2.1 1.7,-3.8 3.8,-3.8 2.1,0 3.8,1.7 3.8,3.8 0,2.1 -1.7,3.8 -3.8,3.8 z"
   id="path2"
   style="fill:#ff65c3;fill-opacity:1" />

<path
   d="M 20.8,4 H 11.3 C 7.2,4 4,7.2 4,11.2 v 9.5 c 0,4 3.2,7.2 7.2,7.2 h 9.5 c 4,0 7.2,-3.2 7.2,-7.2 V 11.2 C 28,7.2 24.8,4 20.8,4 Z m 4.9,16.8 c 0,2.7 -2.2,5 -5,5 h -9.5 c -2.7,0 -5,-2.2 -5,-5 v -9.5 c 0,-2.7 2.2,-5 5,-5 h 9.5 c 2.7,0 5,2.2 5,5 z"
   id="path3"
   style="fill:#ff65c3;fill-opacity:1" />

</g>

</svg>
