<?xml version="1.0" encoding="UTF-8" standalone="no"?>
<!-- Created with Inkscape (http://www.inkscape.org/) -->

<svg
   width="124.89606mm"
   height="42.126453mm"
   viewBox="0 0 124.89606 42.126453"
   version="1.1"
   id="svg1"
   inkscape:version="1.4 (e7c3feb100, 2024-10-09)"
   sodipodi:docname="logo.svg"
   xmlns:inkscape="http://www.inkscape.org/namespaces/inkscape"
   xmlns:sodipodi="http://sodipodi.sourceforge.net/DTD/sodipodi-0.dtd"
   xmlns="http://www.w3.org/2000/svg"
   xmlns:svg="http://www.w3.org/2000/svg">
  <sodipodi:namedview
     id="namedview1"
     pagecolor="#505050"
     bordercolor="#eeeeee"
     borderopacity="1"
     inkscape:showpageshadow="0"
     inkscape:pageopacity="0"
     inkscape:pagecheckerboard="0"
     inkscape:deskcolor="#505050"
     inkscape:document-units="mm"
     inkscape:zoom="0.90509668"
     inkscape:cx="206.05534"
     inkscape:cy="107.17087"
     inkscape:window-width="1151"
     inkscape:window-height="1378"
     inkscape:window-x="0"
     inkscape:window-y="0"
     inkscape:window-maximized="0"
     inkscape:current-layer="g32" />
  <defs
     id="defs1" />
  <g
     inkscape:label="Layer 1"
     inkscape:groupmode="layer"
     id="layer1"
     transform="translate(-1313.3917,-164.04167)">
    <g
       id="g32"
       transform="matrix(0.86182212,0,0,0.86182212,1310.4898,32.859507)">
      <g
         id="g72"
         style="display:inline"
         inkscape:label="disassembled_template"
         transform="matrix(0.38772949,0,0,0.38772949,-86.126693,128.17664)">
        <g
           id="g69">
          <path
             style="fill:#ffffff;fill-opacity:1;stroke-width:1.24829;stroke-linecap:square"
             d="m 292.56654,157.88939 14.99799,-11.54608 h -2.67821 l 6.15989,-6.15989 h -2.94603 l 6.60626,-8.24296 -14.34332,11.30802 h 3.15433 l -7.1419,6.48723 h 2.85677 z"
             id="path69"
             inkscape:label="lightning" />
        </g>
        <g
           id="g70"
           inkscape:label="small-cuts"
           style="display:inline" />
        <path
           sodipodi:type="star"
           style="fill:none;fill-opacity:1;stroke:#ffffff;stroke-width:3;stroke-linecap:square;stroke-dasharray:none;stroke-opacity:1"
           id="path70"
           inkscape:flatsided="true"
           sodipodi:sides="3"
           sodipodi:cx="329.00781"
           sodipodi:cy="61.268951"
           sodipodi:r1="39.943443"
           sodipodi:r2="19.971722"
           sodipodi:arg1="2.6179939"
           sodipodi:arg2="3.6651914"
           inkscape:rounded="0"
           inkscape:randomized="0"
           d="m 294.41578,81.240672 34.59203,-59.915164 34.59204,59.915166 z"
           inkscape:transform-center-y="-9.6877417"
           transform="matrix(0.97014595,0,0,0.97014595,-15.697203,44.762379)" />
        <path
           sodipodi:type="star"
           style="fill:none;fill-opacity:1;stroke:#ffffff;stroke-width:3;stroke-linecap:square;stroke-dasharray:none;stroke-opacity:1"
           id="path71"
           inkscape:flatsided="true"
           sodipodi:sides="3"
           sodipodi:cx="329.00781"
           sodipodi:cy="61.268951"
           sodipodi:r1="39.943443"
           sodipodi:r2="19.971722"
           sodipodi:arg1="2.6179939"
           sodipodi:arg2="3.6651914"
           inkscape:rounded="0"
           inkscape:randomized="0"
           d="m 294.41578,81.240672 34.59203,-59.915164 34.59204,59.915166 z"
           inkscape:transform-center-y="-9.6877417"
           transform="matrix(0.97014595,0,0,0.97014595,-51.767031,107.25265)" />
        <path
           sodipodi:type="star"
           style="fill:none;fill-opacity:1;stroke:#ffffff;stroke-width:3;stroke-linecap:square;stroke-dasharray:none;stroke-opacity:1"
           id="path72"
           inkscape:flatsided="true"
           sodipodi:sides="3"
           sodipodi:cx="329.00781"
           sodipodi:cy="61.268951"
           sodipodi:r1="39.943443"
           sodipodi:r2="19.971722"
           sodipodi:arg1="2.6179939"
           sodipodi:arg2="3.6651914"
           inkscape:rounded="0"
           inkscape:randomized="0"
           d="m 294.41578,81.240672 34.59203,-59.915164 34.59204,59.915166 z"
           inkscape:transform-center-y="-9.6877417"
           transform="matrix(0.97014595,0,0,0.97014595,20.384265,107.25265)" />
      </g>
      <path
         d="m 47.788673,159.80274 q -0.17712,-0.45545 -0.581965,-0.45545 -0.290982,0 -0.809689,0.5187 -0.215074,0.21508 -0.379542,0.34159 -0.708479,0.54401 -1.669985,0.54401 -0.341588,0 -0.670524,-0.11386 -0.316285,-0.11386 -0.581965,-0.31629 -0.265679,-0.21507 -0.468101,-0.4934 -0.189771,-0.27833 -0.278331,-0.61992 -0.253028,-0.89825 -0.253028,-1.16393 v -0.55666 q 0,-0.8856 0.177119,-1.56877 0.189771,-0.70848 0.708479,-1.18923 0.556661,-0.50606 1.26514,-0.50606 0.215074,0 0.683175,0.10121 0.164469,0.0379 0.341588,0.13917 0.17712,0.10121 0.341588,0.25302 0.164468,0.15182 0.290982,0.32894 0.126514,0.17712 0.202423,0.36689 l 0.139165,0.37954 q 0.07591,0.18977 0.316285,0.32894 0.240377,0.12651 0.480753,0.12651 0.531359,0 0.607267,-0.41749 0.03795,-0.12652 0.03795,-0.32894 0,-0.10121 -0.0253,-0.34159 -0.0253,-0.25303 -0.07591,-0.63257 l -0.0253,-0.18977 -0.189771,-0.29098 q -0.215074,-0.25303 -1.189232,-0.63257 l -0.290982,-0.11386 q -0.759084,-0.29099 -1.796499,-0.29099 -0.379542,0 -0.442799,0.0127 l -1.277791,0.18977 q -1.391654,0.21507 -2.504977,1.56877 -1.113324,1.3537 -1.113324,2.78331 0,1.20188 0.594616,2.25195 0.619919,1.06272 1.644682,1.65733 1.227186,0.69583 2.897171,0.75909 1.834453,0.0506 3.112244,-0.93621 0.822341,-0.64522 0.822341,-1.26514 0,-0.12651 -0.03795,-0.22772 z m 8.400538,2.2646 q 0.506056,0 0.506056,-0.48076 0,-0.22772 -0.189771,-0.37954 l -0.08856,-0.0506 -0.05061,-0.0253 q -0.101211,-0.0506 -0.164468,-0.10121 -0.05061,-0.0633 -0.08856,-0.15181 -0.0253,-0.10122 -0.03795,-0.25303 -0.01265,-0.15182 -0.01265,-0.40485 v -1.7965 q 0,-1.15127 -0.670525,-1.77119 -0.657872,-0.63257 -1.885058,-0.63257 -0.834993,0 -1.480214,0.45545 l -0.126514,0.0886 v -2.66945 q 0,-0.40484 -0.01265,-0.4681 -0.01265,-0.12651 -0.139166,-0.29098 -0.151817,-0.20242 -0.392193,-0.20242 -0.08856,0 -0.126514,0.0127 l -2.542931,0.64522 q -0.430148,0.15182 -0.430148,0.4934 0,0.22773 0.189771,0.37955 l 0.08856,0.0506 0.06326,0.038 q 0.265679,0.16446 0.278331,0.43014 l 0.01265,5.57927 -0.01265,0.12651 q -0.01265,0.30364 -0.278331,0.4428 l -0.06326,0.0253 q -0.26568,0.17712 -0.26568,0.43014 0,0.11387 0.08856,0.27833 0.113863,0.20243 0.278331,0.20243 h 3.264061 q 0.506056,0 0.506056,-0.4681 0,-0.32894 -0.278331,-0.4428 l -0.06326,-0.0253 q -0.151817,-0.0886 -0.151817,-0.56931 v -2.47967 l 0.01265,-0.15182 q 0.06326,-0.63257 0.493404,-0.63257 0.63257,0 0.63257,0.58196 v 2.93513 q 0,0.22772 -0.164468,0.31628 l -0.06326,0.0253 q -0.265679,0.17712 -0.265679,0.43014 0,0.16447 0.126514,0.32894 0.139165,0.15182 0.379542,0.15182 z m 8.248716,-0.29099 q 0.0253,-0.10121 0.0253,-0.16446 0,-0.26568 -0.189771,-0.40485 l -0.07591,-0.0506 -0.07591,-0.0253 q -0.290982,-0.15181 -0.303633,-0.68317 0.01265,0.13916 0.01265,-0.0633 0,-0.21507 0,-0.75908 v -1.42961 q 0,-1.27779 -1.062718,-1.7965 -0.493404,-0.24038 -0.898249,-0.29098 -0.253028,-0.038 -0.54401,-0.0506 -0.290982,-0.0127 -0.607267,0 l -0.860296,0.038 -0.328936,0.0379 q -0.442799,0.0506 -0.784387,0.12651 -0.328936,0.0633 -0.54401,0.15182 -0.72113,0.29098 -0.72113,0.92355 0,0.63257 0.607268,0.75909 l 0.189771,0.0379 q 0.06326,0.0127 0.126514,0.0253 0.07591,0 0.139165,0 0.518707,0 0.885598,-0.37954 l 0.151817,-0.16447 0.265679,-0.26568 0.101211,-0.0886 q 0.17712,-0.10122 0.328937,-0.10122 0.480753,0 0.594615,0.58197 l 0.0253,0.31628 -0.01265,0.12652 -0.708479,0.0506 -0.27833,0.0253 -0.430148,0.0506 q -0.253028,0.0253 -0.493404,0.0886 -0.240377,0.0506 -0.493405,0.12652 -1.530819,0.4681 -1.530819,1.78384 0,0.83499 0.506056,1.25249 0.847643,0.67053 1.682636,0.67053 0.708478,0 1.163928,-0.16447 l 0.05061,-0.0253 0.202422,-0.11386 q 0.341588,-0.20242 0.442799,-0.31628 l 0.03795,0.0759 0.07591,0.11386 0.05061,0.0633 0.0253,0.038 q 0.164469,0.16447 0.506056,0.16447 h 2.277252 q 0.328937,0 0.468102,-0.29099 z m -3.542392,-1.54347 -0.01265,0.0506 -0.01265,0.10121 q -0.07591,0.18977 -0.202422,0.31629 -0.215074,0.24037 -0.417496,0.25302 -0.657873,0.0886 -0.657873,-0.64522 0,-0.60726 0.354239,-0.84764 0.139166,-0.10121 0.227725,-0.15182 0.101212,-0.0506 0.126514,-0.0633 l 0.544011,-0.10121 h 0.05061 z m 8.855984,1.29045 q 0,-0.56932 -0.392193,-0.61992 l -0.164468,-0.0253 q -0.480753,0.0253 -0.645222,-0.11387 -0.08856,-0.0633 -0.164468,-0.36689 v -2.93512 h 0.771736 q 0.36689,0 0.480753,-0.13917 0.126514,-0.13916 0.126514,-0.50605 0,-0.59462 -0.657873,-0.59462 H 68.39782 v -1.36635 q 0,-0.39219 -0.455451,-0.4681 -0.03795,-0.0126 -0.759084,-0.0126 -0.518707,0.0506 -0.695827,0.59461 -0.240376,0.78439 -0.442799,0.94886 l -0.06326,0.0506 -0.08856,0.0506 q -0.27833,0.16447 -0.771735,0.21507 -0.54401,0.0506 -0.54401,0.64522 0,0.24038 0.139165,0.4175 0.139166,0.16447 0.303634,0.16447 h 0.430147 v 3.56769 q 0,0.55666 0.531359,0.89825 0.303634,0.13917 0.455451,0.13917 h 2.542931 q 0.771735,0 0.771735,-0.54401 z m 4.959351,0 q 0,-0.56932 -0.392193,-0.61992 l -0.164469,-0.0253 q -0.480753,0.0253 -0.645221,-0.11387 -0.08856,-0.0633 -0.164468,-0.36689 v -2.93512 h 0.771735 q 0.366891,0 0.480753,-0.13917 0.126514,-0.13916 0.126514,-0.50605 0,-0.59462 -0.657872,-0.59462 H 73.35717 v -1.36635 q 0,-0.39219 -0.45545,-0.4681 -0.03795,-0.0126 -0.759084,-0.0126 -0.518708,0.0506 -0.695827,0.59461 -0.240377,0.78439 -0.442799,0.94886 l -0.06326,0.0506 -0.08856,0.0506 q -0.278331,0.16447 -0.771735,0.21507 -0.544011,0.0506 -0.544011,0.64522 0,0.24038 0.139166,0.4175 0.139165,0.16447 0.303633,0.16447 h 0.430148 v 3.56769 q 0,0.55666 0.531359,0.89825 0.303633,0.13917 0.45545,0.13917 h 2.542932 q 0.771735,0 0.771735,-0.54401 z m 7.502282,0.25302 q 0.0253,-0.10121 0.0253,-0.16446 0,-0.26568 -0.189771,-0.40485 l -0.07591,-0.0506 -0.07591,-0.0253 q -0.290982,-0.15181 -0.303634,-0.68317 0.01265,0.13916 0.01265,-0.0633 0,-0.21507 0,-0.75908 v -1.42961 q 0,-1.27779 -1.062718,-1.7965 -0.493404,-0.24038 -0.898249,-0.29098 -0.253028,-0.038 -0.54401,-0.0506 -0.290983,-0.0127 -0.607268,0 l -0.860295,0.038 -0.328936,0.0379 q -0.442799,0.0506 -0.784387,0.12651 -0.328936,0.0633 -0.54401,0.15182 -0.72113,0.29098 -0.72113,0.92355 0,0.63257 0.607267,0.75909 l 0.189771,0.0379 q 0.06326,0.0127 0.126514,0.0253 0.07591,0 0.139166,0 0.518707,0 0.885598,-0.37954 l 0.151816,-0.16447 0.26568,-0.26568 0.101211,-0.0886 q 0.17712,-0.10122 0.328936,-0.10122 0.480754,0 0.594616,0.58197 l 0.0253,0.31628 -0.01265,0.12652 -0.708479,0.0506 -0.278331,0.0253 -0.430147,0.0506 q -0.253028,0.0253 -0.493405,0.0886 -0.240376,0.0506 -0.493404,0.12652 -1.53082,0.4681 -1.53082,1.78384 0,0.83499 0.506056,1.25249 0.847644,0.67053 1.682636,0.67053 0.708479,0 1.163929,-0.16447 l 0.05061,-0.0253 0.202422,-0.11386 q 0.341588,-0.20242 0.442799,-0.31628 l 0.03795,0.0759 0.07591,0.11386 0.0506,0.0633 0.0253,0.038 q 0.164468,0.16447 0.506056,0.16447 h 2.277252 q 0.328936,0 0.468102,-0.29099 z m -3.542392,-1.54347 -0.01265,0.0506 -0.01265,0.10121 q -0.07591,0.18977 -0.202422,0.31629 -0.215074,0.24037 -0.417496,0.25302 -0.657873,0.0886 -0.657873,-0.64522 0,-0.60726 0.354239,-0.84764 0.139165,-0.10121 0.227725,-0.15182 0.101211,-0.0506 0.126514,-0.0633 l 0.54401,-0.10121 h 0.05061 z m 11.791111,1.83446 q 0.506056,0 0.506056,-0.48076 0,-0.22772 -0.189771,-0.37954 l -0.08856,-0.0506 -0.06326,-0.0253 q -0.290982,-0.18977 -0.290982,-0.56931 v -0.64522 l 0.01265,-0.15182 v -0.99946 q 0,-1.379 -0.54401,-2.03687 -0.531359,-0.65788 -1.72059,-0.65788 -1.556123,0 -2.188693,0.89825 v -0.36689 l -0.01265,-0.0633 q -0.08856,-0.50606 -0.506056,-0.50606 -0.101211,0 -0.139165,0.0126 l -2.289904,0.64522 q -0.417496,0.11386 -0.417496,0.48076 0,0.26567 0.189771,0.39219 l 0.07591,0.0506 0.06326,0.038 q 0.26568,0.16447 0.278331,0.43015 l 0.01265,2.47967 -0.01265,0.0886 q -0.06326,0.39219 -0.303633,0.48075 l -0.06326,0.0253 q -0.26568,0.17712 -0.26568,0.43014 0,0.16447 0.126514,0.32894 0.139166,0.15182 0.379542,0.15182 h 3.226107 q 0.455451,0 0.455451,-0.4681 0,-0.29099 -0.26568,-0.4428 l -0.06326,-0.0253 q -0.139165,-0.0506 -0.151817,-0.0759 -0.01265,-0.038 -0.0253,-0.24038 l -0.01265,-2.51763 q 0,-0.87295 0.63257,-0.87295 0.417496,0 0.506056,0.50606 l 0.0253,0.15182 v 0.35424 l 0.0253,0.44279 v 0.84765 l -0.01265,0.48075 -0.01265,0.35424 v 0.12651 l -0.01265,0.12652 -0.01265,0.20242 q -0.01265,0.038 -0.177119,0.11386 l -0.05061,0.0253 q -0.265679,0.13916 -0.265679,0.43014 0,0.16447 0.126514,0.32894 0.139165,0.15182 0.379542,0.15182 z m 8.185443,-2.93513 q 0,-1.27779 -0.797038,-2.07483 -1.012112,-1.01211 -2.871868,-1.01211 -0.177119,0 -1.17658,0.11386 -1.100672,0.12652 -1.796499,0.99946 -0.695827,0.84765 -0.695827,1.97362 0,1.07537 0.63257,1.93567 0.657873,0.9109 1.733242,1.02476 0.531359,0.0633 0.797038,0.0886 0.278331,0.038 0.290982,0.038 h 0.215074 q 0.872947,-0.0886 1.315746,-0.11386 1.037415,-0.11386 1.72059,-1.03741 0.63257,-0.8603 0.63257,-1.93567 z m -2.732702,-0.40484 q 0,0.4934 -0.0253,0.86029 -0.01265,0.35424 -0.03795,0.56932 -0.151817,1.05006 -0.872947,1.05006 -0.36689,0 -0.581964,-0.29098 -0.354239,-0.50606 -0.354239,-1.78385 0,-1.20188 0.303633,-1.68263 0.278331,-0.35424 0.63257,-0.35424 0.379542,0 0.581965,0.27833 0.354239,0.48075 0.354239,1.3537 z m 10.627188,0.40484 q 0,-1.27779 -0.79704,-2.07483 -1.01211,-1.01211 -2.87187,-1.01211 -0.17712,0 -1.17658,0.11386 -1.10067,0.12652 -1.796499,0.99946 -0.695827,0.84765 -0.695827,1.97362 0,1.07537 0.63257,1.93567 0.657876,0.9109 1.733246,1.02476 0.53135,0.0633 0.79703,0.0886 0.27833,0.038 0.29099,0.038 h 0.21507 q 0.87295,-0.0886 1.31575,-0.11386 1.03741,-0.11386 1.72059,-1.03741 0.63257,-0.8603 0.63257,-1.93567 z m -2.73271,-0.40484 q 0,0.4934 -0.0253,0.86029 -0.0126,0.35424 -0.0379,0.56932 -0.15182,1.05006 -0.87295,1.05006 -0.36689,0 -0.58196,-0.29098 -0.35424,-0.50606 -0.35424,-1.78385 0,-1.20188 0.30363,-1.68263 0.27833,-0.35424 0.63257,-0.35424 0.37954,0 0.58196,0.27833 0.35424,0.48075 0.35424,1.3537 z m 11.1965,-1.65734 q 0.0886,-0.12651 0.0886,-0.30363 0,-0.58196 -0.94885,-0.60727 l -1.01212,-0.0127 q -0.73378,-0.0253 -0.97415,-0.0379 -1.12598,-0.038 -1.53082,-0.038 -0.17712,0 -0.89825,0.0759 -0.72113,0.0759 -1.42961,0.58197 -0.77174,0.54401 -0.92355,1.20188 -0.0886,0.35424 -0.12652,0.63257 -0.038,0.26568 -0.038,0.45545 0,1.30309 0.94885,2.03688 0.84765,0.65787 2.214,0.65787 0.75908,0 1.15128,-0.0886 0.29098,0 0.4681,0.21507 0.18977,0.20242 0.18977,0.4681 0,0.74644 -1.08802,0.77174 -0.54401,0.0126 -0.77174,-0.16447 -0.11386,-0.10121 -0.0759,-0.25303 0.12652,-0.16447 0.12652,-0.29098 0,-0.37954 -1.25249,-0.37954 -0.50606,0 -0.84764,0.0886 -0.96151,0.27833 -0.96151,0.98681 0,0.43015 0.35424,0.69582 0.80969,0.61992 2.39111,0.61992 2.01158,0 2.89717,-0.20242 1.93567,-0.43015 1.93567,-1.75854 0,-0.77174 -0.4175,-0.98681 -0.73378,-0.3922 -1.01211,-0.4175 1.21453,-0.58196 1.21453,-2.07483 0,-0.17712 -0.0126,-0.32894 -0.0127,-0.16446 -0.0379,-0.30363 -0.0253,-0.13916 -0.11386,-0.36689 -0.0886,-0.22772 -0.25303,-0.51871 h 0.15181 q 0.4175,-0.0506 0.59462,-0.35424 z m -3.23876,1.84711 q 0,0.80969 -0.0632,1.12597 -0.15182,0.69583 -0.69583,0.69583 -0.51871,0 -0.69583,-0.67052 -0.0759,-0.31629 -0.0759,-1.11333 v -0.30363 q 0,-1.56877 0.73378,-1.56877 0.54401,0 0.72113,0.68317 0.0759,0.34159 0.0759,1.15128 z m 11.14589,2.85921 q 0.0253,-0.10121 0.0253,-0.16446 0,-0.26568 -0.18977,-0.40485 l -0.0759,-0.0506 -0.0759,-0.0253 q -0.29098,-0.15181 -0.30363,-0.68317 0.0126,0.13916 0.0126,-0.0633 0,-0.21507 0,-0.75908 v -1.42961 q 0,-1.27779 -1.06272,-1.7965 -0.4934,-0.24038 -0.89825,-0.29098 -0.25302,-0.038 -0.54401,-0.0506 -0.29098,-0.0127 -0.60726,0 l -0.8603,0.038 -0.32894,0.0379 q -0.44279,0.0506 -0.78438,0.12651 -0.32894,0.0633 -0.54401,0.15182 -0.72113,0.29098 -0.72113,0.92355 0,0.63257 0.60727,0.75909 l 0.18977,0.0379 q 0.0632,0.0127 0.12651,0.0253 0.0759,0 0.13917,0 0.5187,0 0.88559,-0.37954 l 0.15182,-0.16447 0.26568,-0.26568 0.10121,-0.0886 q 0.17712,-0.10122 0.32894,-0.10122 0.48075,0 0.59461,0.58197 l 0.0253,0.31628 -0.0127,0.12652 -0.70847,0.0506 -0.27833,0.0253 -0.43015,0.0506 q -0.25303,0.0253 -0.49341,0.0886 -0.24037,0.0506 -0.4934,0.12652 -1.53082,0.4681 -1.53082,1.78384 0,0.83499 0.50606,1.25249 0.84764,0.67053 1.68263,0.67053 0.70848,0 1.16393,-0.16447 l 0.0506,-0.0253 0.20242,-0.11386 q 0.34159,-0.20242 0.4428,-0.31628 l 0.0379,0.0759 0.0759,0.11386 0.0506,0.0633 0.0253,0.038 q 0.16447,0.16447 0.50605,0.16447 h 2.27726 q 0.32893,0 0.4681,-0.29099 z m -3.54239,-1.54347 -0.0127,0.0506 -0.0126,0.10121 q -0.0759,0.18977 -0.20242,0.31629 -0.21507,0.24037 -0.4175,0.25302 -0.65787,0.0886 -0.65787,-0.64522 0,-0.60726 0.35424,-0.84764 0.13917,-0.10121 0.22773,-0.15182 0.10121,-0.0506 0.12651,-0.0633 l 0.54401,-0.10121 h 0.0506 z"
         id="text29"
         style="font-weight:bold;font-size:12.6514px;line-height:1.2;font-family:Subway;-inkscape-font-specification:'Subway Bold';text-align:center;letter-spacing:0px;word-spacing:0px;text-anchor:middle;fill:#ffffff;stroke-width:2.15174;stroke-linecap:square"
         aria-label="Chattanooga" />
      <path
         d="m 60.639228,185.71615 q 0.08856,-0.48076 0.126514,-0.78439 0.05061,-0.31628 0.05061,-0.45545 0,-0.29098 -0.126514,-0.4175 -0.215074,-0.21507 -0.670524,-0.21507 -0.303634,0 -0.506056,0.26568 l -0.113863,0.13917 -0.113862,0.12651 q -0.341588,0.37954 -0.784387,0.4934 -0.26568,0.0886 -0.936204,0.0886 -0.619918,0 -0.885598,-0.22772 -0.227725,-0.20242 -0.278331,-0.65787 v -2.04953 H 56.7679 l 0.518707,0.0127 q 0.290983,0.0126 0.442799,0.0126 0.151817,0 0.17712,0.0127 0.278331,0.0633 0.518707,0.29099 l 0.126514,0.12651 q 0.215074,0.21507 0.468102,0.21507 0.392194,0 0.493405,-0.17712 l 0.113862,-0.22772 q 0.01265,-0.0127 0.01265,-0.25303 v -0.72113 l 0.01265,-0.63257 q -0.101211,-0.48075 -0.54401,-0.48075 -0.278331,0 -0.442799,0.13916 l -0.08856,0.11387 -0.0506,0.0633 -0.03796,0.0633 q -0.164468,0.27833 -0.556661,0.27833 h -0.645222 l -0.328936,-0.0127 h -0.518707 v -1.74589 q 0,-0.45545 0.404844,-0.56932 l 0.139166,-0.0379 0.06326,-0.0127 h 0.45545 l 0.366891,0.0127 0.177119,0.0127 q 0.468102,0.0379 0.797039,0.36689 0.619918,0.65787 0.923552,0.65787 0.72113,0 0.72113,-0.78438 0,-0.98681 -0.227726,-1.20189 -0.215073,-0.21507 -1.214534,-0.21507 h -6.135929 q -0.531359,0 -0.531359,0.51871 0,0.32893 0.290983,0.4681 l 0.03795,0.0253 0.03795,0.0126 q 0.240377,0.12652 0.303634,0.48076 v 5.84494 q -0.05061,0.34159 -0.303634,0.48076 l -0.07591,0.0379 q -0.290983,0.13917 -0.290983,0.4681 0,0.0633 0.01265,0.15182 0.01265,0.0886 0.06326,0.17712 0.06326,0.0759 0.164468,0.13916 0.101211,0.0506 0.290982,0.0506 h 6.717893 q 0.923553,0 1.012112,-0.4681 z m 12.120041,0.4681 q 0.506056,0 0.506056,-0.48075 0,-0.22773 -0.189771,-0.37955 l -0.08856,-0.0506 -0.06326,-0.0253 q -0.290982,-0.18977 -0.290982,-0.56932 v -2.64414 q 0,-0.82234 -0.670525,-1.3537 -0.670524,-0.53136 -1.758544,-0.53136 -1.075369,0 -1.783847,0.74643 l -0.189771,0.20243 q -0.151817,-0.4428 -0.581965,-0.64522 -0.556661,-0.26568 -1.290443,-0.26568 -0.885598,0 -1.518168,0.74643 l -0.139165,0.16447 -0.01265,-0.30364 v -0.0759 l -0.01265,-0.0633 -0.03795,-0.11386 q -0.126514,-0.3922 -0.480753,-0.3922 -0.101211,0 -0.139166,0.0127 l -2.391114,0.64523 q -0.430148,0.11386 -0.430148,0.4934 0,0.22772 0.189771,0.37954 l 0.08856,0.0506 0.06326,0.0379 q 0.26568,0.16447 0.278331,0.43015 l 0.01265,2.63149 -0.03795,0.10121 q -0.05061,0.24038 -0.253028,0.31629 l -0.06326,0.0253 q -0.265679,0.17712 -0.265679,0.43015 0,0.16446 0.126514,0.32893 0.139165,0.15182 0.379542,0.15182 h 3.048987 q 0.506056,0 0.506056,-0.4681 0,-0.18977 -0.113863,-0.32894 l -0.03795,-0.0253 -0.113862,-0.0886 -0.05061,-0.0253 -0.164468,-0.12652 -0.01265,-0.18977 -0.01265,-0.27833 v -1.08802 q 0,-0.48075 0,-0.79704 0.01265,-0.31628 0.0253,-0.4681 0.05061,-0.64522 0.518707,-0.64522 0.202423,0 0.379542,0.18977 l 0.07591,0.13917 q 0.07591,0.13916 0.07591,0.27833 v 2.41641 l -0.01265,0.25303 q -0.01265,0.26568 -0.139166,0.31629 l -0.06326,0.0253 q -0.278331,0.16447 -0.278331,0.43015 0,0.16446 0.126514,0.32893 0.139166,0.15182 0.379542,0.15182 h 2.770657 q 0.506056,0 0.506056,-0.48075 0,-0.21508 -0.202422,-0.37955 l -0.06326,-0.0506 -0.06326,-0.0253 q -0.126514,-0.0633 -0.139166,-0.11387 l -0.0253,-2.80861 0.0253,-0.16447 q 0.07591,-0.50605 0.518708,-0.50605 0.189771,0 0.328936,0.12651 0.151817,0.11387 0.164468,0.26568 l 0.05061,1.15128 v 1.07537 l -0.01265,0.30363 v 0.35424 l -0.01265,0.20242 q -0.03795,0.0506 -0.139165,0.11387 l -0.08856,0.0253 q -0.26568,0.13916 -0.26568,0.43015 0,0.48075 0.506056,0.48075 z m 8.868626,-3.08694 q 0,-1.3537 -0.885598,-2.11279 -0.531358,-0.45545 -1.037414,-0.64522 -0.0253,-0.0127 -0.607268,-0.15181 h -0.328936 q -1.012112,0 -1.518168,0.65787 l -0.177119,0.22772 v -0.25302 l -0.0253,-0.16447 -0.03795,-0.12652 q -0.17712,-0.37954 -0.480754,-0.37954 -0.101211,0 -0.139165,0.0127 l -2.504977,0.64523 q -0.430148,0.11386 -0.430148,0.4934 0,0.25303 0.189771,0.37954 l 0.07591,0.0506 0.03795,0.0126 0.03795,0.0253 q 0.07591,0.038 0.113863,0.0633 0.0506,0.0253 0.06326,0.0759 0.0253,0.0506 0.03795,0.13916 0.01265,0.0886 0.03795,0.24038 v 4.57981 l -0.01265,0.12651 q -0.01265,0.30363 -0.278331,0.4428 l -0.06326,0.0253 q -0.26568,0.17712 -0.26568,0.43015 0,0.16447 0.126514,0.31628 0.139166,0.16447 0.379542,0.16447 h 3.289364 q 0.493405,0 0.493405,-0.48075 0,-0.22773 -0.17712,-0.37954 l -0.07591,-0.0506 -0.07591,-0.0253 q -0.290983,-0.15182 -0.290983,-0.56931 v -4.35209 q 0,-0.56931 0.139166,-0.78438 0.139165,-0.21508 0.45545,-0.25303 0.442799,0 0.657873,0.55666 l 0.05061,0.13917 0.03795,0.12651 q 0.139165,0.4934 0.139165,0.70848 l 0.0253,0.17712 v 0.16447 l 0.01265,0.18977 v 0.15181 l -0.01265,0.17712 q -0.03795,0.54401 -0.164468,0.78439 -0.126514,0.22773 -0.392194,0.29098 -0.177119,0.0506 -0.265679,0.0759 -0.07591,0.0253 -0.07591,0.0253 -0.341588,0.18977 -0.341588,0.51871 0.08856,0.8603 0.872946,0.75909 0.240377,0 0.278331,-0.0127 0.531359,0 1.847104,-0.45545 0.98681,-0.35424 1.113324,-1.30309 0.151816,-1.13863 0.151816,-1.23984 z m 8.046296,0.15182 q 0,-1.2778 -0.797038,-2.07483 -1.012112,-1.01212 -2.871868,-1.01212 -0.177119,0 -1.17658,0.11387 -1.100672,0.12651 -1.796499,0.99946 -0.695827,0.84764 -0.695827,1.97362 0,1.07536 0.63257,1.93566 0.657873,0.9109 1.733242,1.02476 0.531359,0.0633 0.797038,0.0886 0.278331,0.038 0.290982,0.038 h 0.215074 q 0.872947,-0.0886 1.315746,-0.11387 1.037414,-0.11386 1.72059,-1.03741 0.63257,-0.8603 0.63257,-1.93566 z m -2.732702,-0.40485 q 0,0.4934 -0.0253,0.8603 -0.01265,0.35423 -0.03795,0.56931 -0.151817,1.05006 -0.872947,1.05006 -0.36689,0 -0.581964,-0.29098 -0.354239,-0.50605 -0.354239,-1.78384 0,-1.20189 0.303633,-1.68264 0.278331,-0.35424 0.63257,-0.35424 0.379542,0 0.581965,0.27833 0.354239,0.48075 0.354239,1.3537 z m 14.169571,-2.01157 q 0,-0.49341 -0.50605,-0.49341 h -1.480217 q -0.506056,0 -0.506056,0.48076 0,0.25302 0.189771,0.37954 l 0.08856,0.0379 0.0253,0.0253 0.03795,0.0127 q 0.253028,0.13916 0.253028,0.35424 0,0.0886 -0.03795,0.25302 l -0.08856,0.40485 q -0.139166,0.64522 -0.303634,1.15128 -0.151817,0.4934 -0.328936,0.86029 l -0.164468,0.34159 -0.126514,-0.36689 q -0.366891,-1.06272 -0.417497,-1.3537 l -0.164468,-0.87295 -0.05061,-0.21507 -0.01265,-0.038 q -0.01265,-0.0886 -0.0253,-0.12651 0,-0.0506 0,-0.0506 0,-0.20242 0.253028,-0.34158 l 0.07591,-0.038 q 0.265679,-0.12651 0.265679,-0.40484 0,-0.49341 -0.506056,-0.49341 h -2.89717 q -0.506056,0 -0.506056,0.48076 0,0.25302 0.189771,0.37954 l 0.07591,0.0379 0.03795,0.0253 0.03795,0.0127 q 0.07591,0.0379 0.113863,0.0759 0.05061,0.0253 0.07591,0.0759 0.0253,0.0506 0.03796,0.15182 0.0253,0.0886 0.0506,0.24038 l 0.01265,0.0759 0.01265,0.18977 0.101211,0.82234 q 0,1.12597 -0.45545,1.73324 -0.328937,-0.32894 -0.455451,-0.59462 -0.101211,-0.21507 -0.177119,-0.43014 -0.06326,-0.21508 -0.113863,-0.45545 l -0.177119,-0.98681 -0.06326,-0.30364 -0.01265,-0.0759 q -0.06326,-0.32893 0.253028,-0.5187 l 0.06326,-0.038 q 0.278331,-0.12651 0.278331,-0.41749 0,-0.48076 -0.506056,-0.48076 h -3.175501 q -0.480753,0 -0.480753,0.48076 0,0.25302 0.164468,0.37954 l 0.08856,0.0379 0.05061,0.038 q 0.227725,0.13916 0.26568,0.27833 0.06326,0.25303 0.101211,0.4934 0.05061,0.22773 0.101211,0.4428 l 0.17712,0.75909 q 0.06326,0.26567 0.113862,0.44279 0.06326,0.17712 0.08856,0.27833 0.113863,0.31629 0.253028,0.67053 0.139165,0.35424 0.316285,0.74643 0.328936,0.75909 0.898249,0.89825 l 0.151817,0.038 0.113863,0.0253 0.645221,0.038 0.392193,-0.0127 q 0.442799,-0.0127 0.733782,-0.15182 0.341587,-0.16446 0.657872,-0.82234 0.03796,-0.0759 0.202423,-0.43014 l 0.07591,-0.26568 0.404845,0.87294 q 0.215074,0.48076 0.645221,0.63257 0.430148,0.15182 0.746433,0.15182 0.708478,0 1.151277,-0.16447 0.430148,-0.13916 0.708479,-0.72113 0.0506,-0.10121 0.151817,-0.34159 0.101211,-0.24037 0.240376,-0.63257 l 0.328937,-0.89825 0.328934,-1.06271 0.12652,-0.37955 0.15181,-0.4934 q 0.11387,-0.30363 0.30364,-0.39219 l 0.0506,-0.038 q 0.27833,-0.12651 0.27833,-0.40484 z m 7.1607,1.30309 q 0,-0.98681 -1.39165,-1.61938 -0.8603,-0.39219 -1.74589,-0.39219 -1.3031,0 -2.64415,0.92355 -1.22718,0.83499 -1.22718,2.36581 0,1.42961 1.18923,2.2393 1.03741,0.68318 2.53028,0.68318 0.61992,0 1.48021,-0.20243 1.03742,-0.24037 1.31575,-0.58196 0.4934,-0.60727 0.4934,-0.94886 0,-0.34158 -0.41749,-0.40484 -0.27833,0 -0.45545,0.10121 -1.16393,0.78439 -1.78385,0.78439 -1.12598,0 -1.12598,-0.92355 v -0.17712 q 0,-0.0253 1.3031,-0.17712 1.379,-0.17712 1.54347,-0.26568 0.9362,-0.53136 0.9362,-1.40431 z m -2.64414,-0.35424 q 0,0.60727 -0.35424,0.8856 -0.30363,0.21507 -0.9362,0.32894 -0.0127,-0.0886 -0.0253,-0.17712 0,-0.0886 0,-0.18977 0,-0.4428 0.11387,-0.80969 0.16447,-0.50606 0.70848,-0.50606 0.4934,0 0.4934,0.4681 z m 9.00779,-0.55666 q 0,-1.10067 -1.25249,-1.10067 -0.39219,0 -0.64522,0.13916 -0.16447,0.10122 -0.4681,0.4428 l -0.20243,0.24038 -0.0886,0.11386 v -0.21507 q 0,-0.70848 -0.5187,-0.70848 -0.0126,0 -0.0506,0.0127 -0.0253,0 -0.0886,0.0127 l -2.17604,0.64523 q -0.43015,0.12651 -0.43015,0.4934 0,0.22772 0.18977,0.37954 l 0.0886,0.0506 0.0633,0.0379 q 0.26568,0.16447 0.27833,0.43015 l 0.0127,2.47967 -0.0127,0.12652 q -0.0126,0.30363 -0.27833,0.4428 l -0.0633,0.0253 q -0.26567,0.17712 -0.26567,0.43015 0,0.16446 0.12651,0.32893 0.13916,0.15182 0.37954,0.15182 h 3.25141 q 0.50606,0 0.50606,-0.48075 0,-0.24038 -0.18977,-0.37955 l -0.0759,-0.0506 -0.0633,-0.0253 q -0.29098,-0.15182 -0.29098,-0.56932 v -1.58142 q 0,-0.50606 0.12651,-0.67053 0.0886,-0.10121 0.34159,-0.12651 l 0.4428,0.0759 q 0.0253,0 0.11386,0.0127 0.10121,0.0126 0.15182,0.0126 0.73378,0 1.02476,-0.74643 0.0633,-0.27833 0.0633,-0.43015 z m 11.70254,4.95935 q 0.50606,0 0.50606,-0.48075 0,-0.22773 -0.18977,-0.37955 l -0.0886,-0.0506 -0.0633,-0.0253 q -0.29098,-0.18977 -0.29098,-0.56932 v -2.64414 q 0,-0.82234 -0.67052,-1.3537 -0.67053,-0.53136 -1.75855,-0.53136 -1.07537,0 -1.78385,0.74643 l -0.18977,0.20243 q -0.15181,-0.4428 -0.58196,-0.64522 -0.55666,-0.26568 -1.29044,-0.26568 -0.8856,0 -1.51817,0.74643 l -0.13917,0.16447 -0.0126,-0.30364 v -0.0759 l -0.0127,-0.0633 -0.038,-0.11386 q -0.12651,-0.3922 -0.48075,-0.3922 -0.10121,0 -0.13916,0.0127 l -2.39112,0.64523 q -0.43015,0.11386 -0.43015,0.4934 0,0.22772 0.18978,0.37954 l 0.0885,0.0506 0.0633,0.0379 q 0.26568,0.16447 0.27833,0.43015 l 0.0126,2.63149 -0.0379,0.10121 q -0.0506,0.24038 -0.25303,0.31629 l -0.0633,0.0253 q -0.26567,0.17712 -0.26567,0.43015 0,0.16446 0.12651,0.32893 0.13916,0.15182 0.37954,0.15182 h 3.04899 q 0.50605,0 0.50605,-0.4681 0,-0.18977 -0.11386,-0.32894 l -0.0379,-0.0253 -0.11386,-0.0886 -0.0506,-0.0253 -0.16447,-0.12652 -0.0126,-0.18977 -0.0127,-0.27833 v -1.08802 q 0,-0.48075 0,-0.79704 0.0127,-0.31628 0.0253,-0.4681 0.0506,-0.64522 0.51871,-0.64522 0.20242,0 0.37954,0.18977 l 0.0759,0.13917 q 0.0759,0.13916 0.0759,0.27833 v 2.41641 l -0.0127,0.25303 q -0.0126,0.26568 -0.13917,0.31629 l -0.0633,0.0253 q -0.27833,0.16447 -0.27833,0.43015 0,0.16446 0.12652,0.32893 0.13916,0.15182 0.37954,0.15182 h 2.77066 q 0.50605,0 0.50605,-0.48075 0,-0.21508 -0.20242,-0.37955 l -0.0633,-0.0506 -0.0633,-0.0253 q -0.12652,-0.0633 -0.13917,-0.11387 l -0.0253,-2.80861 0.0253,-0.16447 q 0.0759,-0.50605 0.51871,-0.50605 0.18977,0 0.32893,0.12651 0.15182,0.11387 0.16447,0.26568 l 0.0506,1.15128 v 1.07537 l -0.0126,0.30363 v 0.35424 l -0.0127,0.20242 q -0.0379,0.0506 -0.13916,0.11387 l -0.0886,0.0253 q -0.26568,0.13916 -0.26568,0.43015 0,0.48075 0.50606,0.48075 z m 7.83122,-4.04845 q 0,-0.98681 -1.39166,-1.61938 -0.86029,-0.39219 -1.74589,-0.39219 -1.30309,0 -2.64414,0.92355 -1.22719,0.83499 -1.22719,2.36581 0,1.42961 1.18923,2.2393 1.03742,0.68318 2.53028,0.68318 0.61992,0 1.48022,-0.20243 1.03741,-0.24037 1.31574,-0.58196 0.49341,-0.60727 0.49341,-0.94886 0,-0.34158 -0.4175,-0.40484 -0.27833,0 -0.45545,0.10121 -1.16393,0.78439 -1.78385,0.78439 -1.12597,0 -1.12597,-0.92355 v -0.17712 q 0,-0.0253 1.30309,-0.17712 1.379,-0.17712 1.54347,-0.26568 0.93621,-0.53136 0.93621,-1.40431 z m -2.64415,-0.35424 q 0,0.60727 -0.35424,0.8856 -0.30363,0.21507 -0.9362,0.32894 -0.0127,-0.0886 -0.0253,-0.17712 0,-0.0886 0,-0.18977 0,-0.4428 0.11386,-0.80969 0.16447,-0.50606 0.70848,-0.50606 0.4934,0 0.4934,0.4681 z m 11.05732,4.40269 q 0.50606,0 0.50606,-0.48075 0,-0.22773 -0.18978,-0.37955 l -0.0886,-0.0506 -0.0632,-0.0253 q -0.29098,-0.18977 -0.29098,-0.56932 v -0.64522 l 0.0127,-0.15181 v -0.99947 q 0,-1.379 -0.54401,-2.03687 -0.53136,-0.65787 -1.72059,-0.65787 -1.55613,0 -2.1887,0.89825 v -0.36689 l -0.0126,-0.0633 q -0.0886,-0.50606 -0.50605,-0.50606 -0.10121,0 -0.13917,0.0127 l -2.2899,0.64523 q -0.4175,0.11386 -0.4175,0.48075 0,0.26568 0.18977,0.39219 l 0.0759,0.0506 0.0633,0.0379 q 0.26568,0.16447 0.27833,0.43015 l 0.0127,2.47967 -0.0127,0.0886 q -0.0633,0.3922 -0.30363,0.48076 l -0.0633,0.0253 q -0.26568,0.17712 -0.26568,0.43015 0,0.16446 0.12651,0.32893 0.13917,0.15182 0.37954,0.15182 h 3.22611 q 0.45545,0 0.45545,-0.4681 0,-0.29098 -0.26568,-0.4428 l -0.0632,-0.0253 q -0.13917,-0.0506 -0.15182,-0.0759 -0.0127,-0.038 -0.0253,-0.24038 l -0.0127,-2.51763 q 0,-0.87294 0.63257,-0.87294 0.4175,0 0.50606,0.50605 l 0.0253,0.15182 v 0.35424 l 0.0253,0.4428 v 0.84764 l -0.0127,0.48075 -0.0127,0.35424 v 0.12652 l -0.0126,0.12651 -0.0127,0.20242 q -0.0127,0.038 -0.17712,0.11387 l -0.0506,0.0253 q -0.26568,0.13916 -0.26568,0.43015 0,0.16446 0.12651,0.32893 0.13917,0.15182 0.37954,0.15182 z m 5.69312,-0.54401 q 0,-0.56931 -0.3922,-0.61992 l -0.16446,-0.0253 q -0.48076,0.0253 -0.64523,-0.11386 -0.0886,-0.0633 -0.16446,-0.36689 v -2.93513 h 0.77173 q 0.36689,0 0.48075,-0.13916 0.12652,-0.13917 0.12652,-0.50606 0,-0.59462 -0.65787,-0.59462 h -0.70848 v -1.36635 q 0,-0.39219 -0.45545,-0.4681 -0.038,-0.0127 -0.75909,-0.0127 -0.5187,0.0506 -0.69582,0.59461 -0.24038,0.78439 -0.4428,0.94886 l -0.0633,0.0506 -0.0886,0.0506 q -0.27833,0.16447 -0.77174,0.21507 -0.54401,0.0506 -0.54401,0.64523 0,0.24037 0.13917,0.41749 0.13917,0.16447 0.30363,0.16447 h 0.43015 v 3.5677 q 0,0.55666 0.53136,0.89824 0.30363,0.13917 0.45545,0.13917 h 2.54293 q 0.77174,0 0.77174,-0.54401 z"
         id="text30"
         style="font-weight:bold;font-size:12.6514px;line-height:1.2;font-family:Subway;-inkscape-font-specification:'Subway Bold';text-align:center;letter-spacing:0px;word-spacing:0px;text-anchor:middle;fill:#ffffff;stroke-width:2.15174;stroke-linecap:square"
         aria-label="Empowerment" />
      <path
         d="m 56.312099,170.0647 q 0,-2.02422 -1.454911,-3.32732 -1.454911,-1.30309 -3.681557,-1.30309 -1.3537,0 -2.53028,0.56931 -1.239837,0.59462 -1.923013,1.65733 -0.746432,1.11333 -0.746432,2.41642 0,1.05007 0.556661,2.18869 0.569313,1.16393 1.594076,1.78385 1.075369,0.67052 2.429069,0.64522 l 0.72113,-0.0127 0.227725,0.21507 q 0.657873,0.61992 1.138626,0.8603 0.417496,0.21507 0.80969,0.27833 0.771735,0.11386 1.125974,0.11386 0.834993,0 1.17658,-0.26568 0.341588,-0.25302 0.341588,-0.82234 0,-0.73378 -0.948855,-0.73378 -0.06326,0 -0.189771,0.0127 -0.113862,0.0127 -0.290982,0.038 l -0.265679,0.0379 q -0.26568,0.038 -0.468102,0.038 -0.45545,0 -0.733781,-0.20242 1.416956,-0.50605 2.251949,-1.59407 0.860295,-1.15128 0.860295,-2.59354 z m -3.428529,0.79704 -0.01265,0.32893 -0.03795,0.4428 q -0.113862,1.31575 -0.797038,1.59408 -0.17712,-0.36689 -0.227725,-0.80969 l 0.01265,-0.34159 q 0.0253,-0.74643 -0.581964,-0.74643 -0.872947,0 -0.797038,1.06272 l 0.01265,0.16447 0.0253,0.15181 0.151817,0.61992 q -0.89825,-0.34159 -1.100672,-1.89771 -0.05061,-0.36689 -0.07591,-0.60727 -0.01265,-0.25302 -0.0253,-0.37954 v -0.48075 q 0,-1.55612 0.265679,-2.2646 0.379542,-1.01211 1.404305,-1.01211 0.885598,0 1.26514,0.70847 0.164469,0.30364 0.35424,0.99946 0.164468,0.58197 0.164468,2.08749 z m 11.867002,3.6436 q 0.506056,0 0.506056,-0.48075 0,-0.25303 -0.202423,-0.37954 l -0.07591,-0.0506 -0.05061,-0.0253 q -0.303633,-0.15182 -0.303633,-0.56932 v -3.56769 q 0,-0.43015 -0.113863,-0.72113 -0.08856,-0.24038 -0.404844,-0.24038 -0.101212,0 -0.139166,0.0127 l -2.568234,0.64523 q -0.404845,0.17712 -0.404845,0.4934 0,0.25303 0.189771,0.37954 l 0.113863,0.0759 0.03795,0.0127 q 0.227725,0.12652 0.278331,0.43015 v 1.64468 l -0.0253,0.48075 -0.01265,0.0759 -0.0253,0.10121 -0.0253,0.0886 q -0.08856,0.31629 -0.468102,0.35424 -0.07591,0 -0.101211,0.0127 -0.392193,0 -0.442799,-0.34158 l 0.05061,-3.50444 q 0.01265,-0.39219 -0.113863,-0.72113 -0.08856,-0.24038 -0.417496,-0.24038 -0.101211,0 -0.139166,0.0127 l -2.542931,0.64523 q -0.430147,0.15181 -0.430147,0.4934 0,0.22773 0.189771,0.37954 l 0.08856,0.0506 0.06326,0.0379 q 0.227726,0.12652 0.290983,0.4428 l -0.08856,2.35316 q -0.0253,0.75909 0.569313,1.23984 0.607267,0.48075 1.669984,0.48075 0.101212,0 0.17712,0 0.08856,0 0.151817,-0.0127 l 0.695827,-0.0886 q 0.506056,-0.0506 1.037415,-0.58196 l 0.113862,-0.11387 0.01265,0.0759 q 0.0506,0.26568 0.202422,0.4428 0.164468,0.17712 0.354239,0.17712 z m 7.843878,-4.04845 q 0,-0.98681 -1.391654,-1.61938 -0.860295,-0.39219 -1.745893,-0.39219 -1.303094,0 -2.644142,0.92355 -1.227186,0.83499 -1.227186,2.36581 0,1.42961 1.189232,2.2393 1.037414,0.68318 2.530279,0.68318 0.619919,0 1.480214,-0.20243 1.037415,-0.24037 1.315746,-0.58196 0.493404,-0.60727 0.493404,-0.94885 0,-0.34159 -0.417496,-0.40485 -0.278331,0 -0.45545,0.10121 -1.163929,0.78439 -1.783848,0.78439 -1.125974,0 -1.125974,-0.92355 V 172.304 q 0,-0.0253 1.303094,-0.17712 1.379003,-0.17712 1.543471,-0.26568 0.936203,-0.53136 0.936203,-1.40431 z m -2.644142,-0.35424 q 0,0.60727 -0.354239,0.8856 -0.303634,0.21508 -0.936204,0.32894 -0.01265,-0.0886 -0.0253,-0.17712 0,-0.0886 0,-0.18977 0,-0.4428 0.113863,-0.80969 0.164468,-0.50606 0.708478,-0.50606 0.493405,0 0.493405,0.4681 z m 10.260277,0.35424 q 0,-0.98681 -1.391654,-1.61938 -0.860295,-0.39219 -1.745893,-0.39219 -1.303094,0 -2.644143,0.92355 -1.227185,0.83499 -1.227185,2.36581 0,1.42961 1.189231,2.2393 1.037415,0.68318 2.53028,0.68318 0.619919,0 1.480214,-0.20243 1.037415,-0.24037 1.315745,-0.58196 0.493405,-0.60727 0.493405,-0.94885 0,-0.34159 -0.417496,-0.40485 -0.278331,0 -0.455451,0.10121 -1.163928,0.78439 -1.783847,0.78439 -1.125974,0 -1.125974,-0.92355 V 172.304 q 0,-0.0253 1.303094,-0.17712 1.379002,-0.17712 1.54347,-0.26568 0.936204,-0.53136 0.936204,-1.40431 z m -2.644143,-0.35424 q 0,0.60727 -0.354239,0.8856 -0.303633,0.21508 -0.936203,0.32894 -0.01265,-0.0886 -0.0253,-0.17712 0,-0.0886 0,-0.18977 0,-0.4428 0.113863,-0.80969 0.164468,-0.50606 0.708478,-0.50606 0.493404,0 0.493404,0.4681 z m 9.007785,-0.55666 q 0,-1.10067 -1.252488,-1.10067 -0.392194,0 -0.645222,0.13917 -0.164468,0.10121 -0.468101,0.44279 l -0.202423,0.24038 -0.08856,0.11386 v -0.21507 q 0,-0.70848 -0.518707,-0.70848 -0.01265,0 -0.05061,0.0127 -0.0253,0 -0.08856,0.0127 l -2.176041,0.64523 q -0.430148,0.12651 -0.430148,0.4934 0,0.22773 0.189771,0.37954 l 0.08856,0.0506 0.06326,0.0379 q 0.265679,0.16447 0.278331,0.43015 l 0.01265,2.47967 -0.01265,0.12652 q -0.01265,0.30363 -0.278331,0.4428 l -0.06326,0.0253 q -0.265679,0.17712 -0.265679,0.43015 0,0.16447 0.126514,0.32893 0.139165,0.15182 0.379542,0.15182 h 3.251409 q 0.506056,0 0.506056,-0.48075 0,-0.24038 -0.189771,-0.37954 l -0.07591,-0.0506 -0.06326,-0.0253 q -0.290982,-0.15182 -0.290982,-0.56932 v -1.58142 q 0,-0.50606 0.126514,-0.67053 0.08856,-0.10121 0.341588,-0.12651 l 0.442799,0.0759 q 0.0253,0 0.113862,0.0127 0.101211,0.0126 0.151817,0.0126 0.733781,0 1.024763,-0.74643 0.06326,-0.27833 0.06326,-0.43015 z"
         id="text31"
         style="font-weight:bold;font-size:12.6514px;line-height:1.2;font-family:Subway;-inkscape-font-specification:'Subway Bold';text-align:center;letter-spacing:0px;word-spacing:0px;text-anchor:middle;fill:#ffffff;stroke-width:2.15174;stroke-linecap:square"
         aria-label="Queer" />
      <path
         d="m 68.577987,196.16786 q -0.17712,-0.45545 -0.581964,-0.45545 -0.290983,0 -0.80969,0.51871 -0.215074,0.21507 -0.379542,0.34159 -0.708478,0.54401 -1.669985,0.54401 -0.341587,0 -0.670524,-0.11386 -0.316285,-0.11387 -0.581964,-0.31629 -0.26568,-0.21507 -0.468102,-0.4934 -0.189771,-0.27833 -0.278331,-0.61992 -0.253028,-0.89825 -0.253028,-1.16393 v -0.55666 q 0,-0.8856 0.17712,-1.56878 0.189771,-0.70847 0.708478,-1.18923 0.556662,-0.50605 1.26514,-0.50605 0.215074,0 0.683176,0.10121 0.164468,0.0379 0.341588,0.13916 0.177119,0.10121 0.341587,0.25303 0.164469,0.15182 0.290983,0.32894 0.126514,0.17712 0.202422,0.36689 l 0.139165,0.37954 q 0.07591,0.18977 0.316285,0.32894 0.240377,0.12651 0.480753,0.12651 0.531359,0 0.607268,-0.4175 0.03795,-0.12651 0.03795,-0.32893 0,-0.10121 -0.0253,-0.34159 -0.0253,-0.25303 -0.07591,-0.63257 l -0.0253,-0.18977 -0.189771,-0.29098 q -0.215074,-0.25303 -1.189232,-0.63257 l -0.290982,-0.11387 q -0.759084,-0.29098 -1.796499,-0.29098 -0.379542,0 -0.442799,0.0127 l -1.277791,0.18977 q -1.391654,0.21508 -2.504977,1.56878 -1.113323,1.3537 -1.113323,2.78331 0,1.20188 0.594616,2.25195 0.619918,1.06271 1.644681,1.65733 1.227186,0.69583 2.897171,0.75908 1.834453,0.0506 3.112244,-0.9362 0.822341,-0.64522 0.822341,-1.26514 0,-0.12651 -0.03795,-0.22773 z m 7.995693,-0.67052 q 0,-1.27779 -0.797038,-2.07483 -1.012112,-1.01211 -2.871868,-1.01211 -0.177119,0 -1.17658,0.11386 -1.100672,0.12651 -1.796499,0.99946 -0.695827,0.84765 -0.695827,1.97362 0,1.07537 0.63257,1.93566 0.657873,0.9109 1.733242,1.02477 0.531359,0.0632 0.797038,0.0886 0.278331,0.0379 0.290982,0.0379 h 0.215074 q 0.872947,-0.0886 1.315746,-0.11386 1.037415,-0.11386 1.72059,-1.03742 0.63257,-0.86029 0.63257,-1.93566 z m -2.732702,-0.40484 q 0,0.4934 -0.0253,0.86029 -0.01265,0.35424 -0.03795,0.56931 -0.151817,1.05007 -0.872947,1.05007 -0.36689,0 -0.581964,-0.29098 -0.354239,-0.50606 -0.354239,-1.78385 0,-1.20188 0.303633,-1.68264 0.278331,-0.35424 0.63257,-0.35424 0.379542,0 0.581965,0.27834 0.354239,0.48075 0.354239,1.3537 z m 7.337819,3.04898 q 0.03795,-0.0886 0.03795,-0.17712 0,-0.25303 -0.189771,-0.39219 l -0.07591,-0.0506 -0.07591,-0.0253 q -0.27833,-0.15182 -0.27833,-0.56931 v -6.66729 q 0,-0.96151 -0.544011,-0.96151 -0.101211,0 -0.139165,0.0127 l -2.542931,0.64522 q -0.430148,0.15181 -0.430148,0.4934 0,0.22773 0.189771,0.37954 l 0.08856,0.0506 0.06326,0.0379 q 0.265679,0.16447 0.278331,0.43015 l 0.01265,5.57927 -0.01265,0.12651 q -0.01265,0.30364 -0.278331,0.4428 l -0.06326,0.0253 q -0.26568,0.17712 -0.26568,0.43015 0,0.16447 0.126514,0.32894 0.139166,0.15181 0.379542,0.15181 h 3.25141 q 0.328936,0 0.468102,-0.29098 z m 4.440639,0 q 0.03796,-0.0886 0.03796,-0.17712 0,-0.25303 -0.189771,-0.39219 l -0.07591,-0.0506 -0.07591,-0.0253 q -0.278331,-0.15182 -0.278331,-0.56931 v -6.66729 q 0,-0.96151 -0.54401,-0.96151 -0.101211,0 -0.139166,0.0127 l -2.542931,0.64522 q -0.430147,0.15181 -0.430147,0.4934 0,0.22773 0.189771,0.37954 l 0.08856,0.0506 0.06326,0.0379 q 0.26568,0.16447 0.278331,0.43015 l 0.01265,5.57927 -0.01265,0.12651 q -0.01265,0.30364 -0.278331,0.4428 l -0.06326,0.0253 q -0.265679,0.17712 -0.265679,0.43015 0,0.16447 0.126514,0.32894 0.139165,0.15181 0.379542,0.15181 h 3.25141 q 0.328936,0 0.468101,-0.29098 z m 7.375763,-3.75746 q 0,-0.98681 -1.391654,-1.61938 -0.860295,-0.3922 -1.745893,-0.3922 -1.303095,0 -2.644143,0.92356 -1.227186,0.83499 -1.227186,2.36581 0,1.42961 1.189232,2.2393 1.037415,0.68317 2.53028,0.68317 0.619918,0 1.480214,-0.20242 1.037414,-0.24038 1.315745,-0.58197 0.493405,-0.60726 0.493405,-0.94885 0,-0.34159 -0.417497,-0.40485 -0.27833,0 -0.45545,0.10122 -1.163929,0.78438 -1.783847,0.78438 -1.125975,0 -1.125975,-0.92355 v -0.17712 q 0,-0.0253 1.303094,-0.17712 1.379003,-0.17712 1.543471,-0.26568 0.936204,-0.53136 0.936204,-1.4043 z m -2.644143,-0.35424 q 0,0.60726 -0.354239,0.8856 -0.303634,0.21507 -0.936204,0.32893 -0.01265,-0.0886 -0.0253,-0.17712 0,-0.0886 0,-0.18977 0,-0.4428 0.113862,-0.80969 0.164468,-0.50605 0.708479,-0.50605 0.493404,0 0.493404,0.4681 z m 9.943994,3.01103 q 0,-0.58196 -0.556665,-0.58196 -0.113863,0 -0.341588,0.10121 l -0.468102,0.32893 -0.07591,0.0506 q -0.06326,0.0379 -0.101211,0.0633 -0.0253,0.0253 -0.05061,0.0379 -0.290982,0.20242 -0.733781,0.20242 -0.468102,0 -0.822341,-0.29098 -0.354239,-0.29098 -0.404845,-0.74643 l -0.06326,-0.59462 q 0,-0.21507 0.01265,-0.40484 0.01265,-0.20242 0.03795,-0.37954 l 0.0253,-0.17712 0.0506,-0.21508 q 0.07591,-0.34159 0.189771,-0.50605 0.26568,-0.32894 0.518708,-0.32894 0.240376,0 0.581964,0.45545 l 0.07591,0.10121 0.101211,0.12652 q 0.379542,0.4681 0.910901,0.4681 0,0 0.06326,0 0.07591,-0.0127 0.215074,-0.0253 l 0.240377,-0.0506 q 0.518709,-0.18977 0.518709,-0.73378 0,-0.54401 -0.594618,-0.9109 -0.99946,-0.61992 -2.315206,-0.61992 -2.112784,0 -3.086941,1.27779 -0.594616,0.78439 -0.594616,1.94832 0,1.48021 0.99946,2.25194 0.936204,0.70848 2.429069,0.70848 1.062718,0 1.98627,-0.36689 0.569313,-0.22772 0.910901,-0.55666 0.341591,-0.34159 0.341591,-0.63257 z m 5.4148,0.84764 q 0,-0.56931 -0.39219,-0.61991 l -0.16447,-0.0253 q -0.48075,0.0253 -0.64522,-0.11386 -0.0886,-0.0633 -0.16447,-0.36689 v -2.93512 h 0.77174 q 0.36689,0 0.48075,-0.13917 0.12651,-0.13917 0.12651,-0.50606 0,-0.59461 -0.65787,-0.59461 h -0.70848 v -1.36635 q 0,-0.3922 -0.45545,-0.4681 -0.0379,-0.0127 -0.75908,-0.0127 -0.51871,0.0506 -0.69583,0.59462 -0.24038,0.78439 -0.4428,0.94885 l -0.0633,0.0506 -0.0886,0.0506 q -0.27833,0.16446 -0.77173,0.21507 -0.54401,0.0506 -0.54401,0.64522 0,0.24038 0.13916,0.4175 0.13917,0.16447 0.30364,0.16447 h 0.43015 v 3.56769 q 0,0.55666 0.53135,0.89825 0.30364,0.13916 0.45545,0.13916 h 2.54294 q 0.77173,0 0.77173,-0.54401 z m 2.10014,-5.98411 q 0.60727,0 1.05007,-0.30363 0.5187,-0.36689 0.5187,-0.92355 0,-0.56932 -0.50605,-0.94886 -0.48076,-0.34159 -1.06272,-0.34159 -0.51871,-0.0632 -1.07537,0.34159 -0.60727,0.43015 -0.58196,1.02477 0.0127,0.4934 0.4681,0.82234 0.4681,0.32893 1.18923,0.32893 z m 2.06218,6.23714 q 0.038,-0.0886 0.038,-0.17712 0,-0.25303 -0.18977,-0.39219 l -0.0759,-0.0506 -0.0759,-0.0253 q -0.27833,-0.15182 -0.27833,-0.56931 v -3.5677 q 0,-0.34158 -0.0126,-0.37954 -0.11386,-0.58196 -0.53136,-0.58196 -0.10121,0 -0.13916,0.0127 l -2.54293,0.64522 q -0.43015,0.15182 -0.43015,0.4934 0,0.22773 0.18977,0.37955 l 0.0886,0.0506 0.0633,0.038 q 0.26568,0.16446 0.27833,0.43014 l 0.0126,2.47968 -0.0126,0.12651 q -0.0127,0.30364 -0.27833,0.4428 l -0.0633,0.0253 q -0.26568,0.17712 -0.26568,0.43015 0,0.16447 0.12651,0.32894 0.13917,0.15181 0.37955,0.15181 h 3.25141 q 0.32893,0 0.4681,-0.29098 z m 7.40106,-5.25033 q -0.13916,-0.30363 -0.4681,-0.30363 h -1.58142 q -0.50606,0 -0.50606,0.4681 0,0.26568 0.20242,0.39219 l 0.0759,0.038 0.0633,0.0379 q 0.27833,0.16447 0.27833,0.4428 0,0.20242 -0.0886,0.54401 l -0.20242,0.79704 -0.0886,0.27833 q -0.12652,0.37954 -0.20242,0.61992 -0.0759,0.24037 -0.12652,0.34159 l -0.038,0.0886 -0.0886,0.13916 -0.10121,-0.16447 -0.0633,-0.13916 q -0.55666,-1.22719 -0.69583,-1.96097 l -0.0759,-0.43015 -0.0759,-0.35424 q 0.0253,-0.12651 0.16446,-0.21507 l 0.038,-0.0253 q 0.26568,-0.12652 0.26568,-0.4175 0,-0.48075 -0.50606,-0.48075 h -3.25141 q -0.15181,0 -0.25303,0.17712 -0.10121,0.17712 -0.10121,0.31628 0,0.24038 0.16447,0.36689 l 0.0886,0.038 0.0633,0.0379 q 0.18977,0.12652 0.32893,0.43015 0.038,0.13916 0.0759,0.26568 0.038,0.12651 0.0886,0.26568 l 0.10121,0.31628 q 0.17712,0.53136 0.3922,1.08802 0.22772,0.54401 0.50605,1.15128 0.50606,1.06272 0.75909,1.29044 0.31628,0.26568 1.11332,0.24038 l 0.40485,-0.0127 q 0.60726,-0.0253 0.92355,-0.26568 0.30363,-0.24038 0.73378,-1.29044 l 0.4428,-1.06272 q 0.27833,-0.64522 0.4428,-1.26514 l 0.24037,-0.84764 q 0.10121,-0.21508 0.25303,-0.30364 l 0.0633,-0.0379 q 0.27833,-0.12652 0.27833,-0.4175 0,-0.0759 -0.038,-0.17712 z m 7.11008,1.49287 q 0,-0.98681 -1.39166,-1.61938 -0.86029,-0.3922 -1.74589,-0.3922 -1.30309,0 -2.64414,0.92356 -1.22719,0.83499 -1.22719,2.36581 0,1.42961 1.18923,2.2393 1.03742,0.68317 2.53028,0.68317 0.61992,0 1.48022,-0.20242 1.03741,-0.24038 1.31574,-0.58197 0.49341,-0.60726 0.49341,-0.94885 0,-0.34159 -0.4175,-0.40485 -0.27833,0 -0.45545,0.10122 -1.16393,0.78438 -1.78385,0.78438 -1.12597,0 -1.12597,-0.92355 v -0.17712 q 0,-0.0253 1.30309,-0.17712 1.37901,-0.17712 1.54347,-0.26568 0.93621,-0.53136 0.93621,-1.4043 z m -2.64414,-0.35424 q 0,0.60726 -0.35424,0.8856 -0.30364,0.21507 -0.93621,0.32893 -0.0126,-0.0886 -0.0253,-0.17712 0,-0.0886 0,-0.18977 0,-0.4428 0.11386,-0.80969 0.16447,-0.50605 0.70848,-0.50605 0.49341,0 0.49341,0.4681 z"
         id="text32"
         style="font-weight:bold;font-size:12.6514px;line-height:1.2;font-family:Subway;-inkscape-font-specification:'Subway Bold';text-align:center;letter-spacing:0px;word-spacing:0px;text-anchor:middle;fill:#ffffff;stroke-width:2.15174;stroke-linecap:square"
         aria-label="Collective" />
    </g>
  </g>
</svg>
